<?xml version="1.0" standalone="no"?>
<!DOCTYPE svg PUBLIC "-//W3C//DTD SVG 20010904//EN"
 "http://www.w3.org/TR/2001/REC-SVG-20010904/DTD/svg10.dtd">
<svg version="1.0" xmlns="http://www.w3.org/2000/svg"
 width="344.000000pt" height="344.000000pt" viewBox="0 0 344.000000 344.000000"
 preserveAspectRatio="xMidYMid meet">
<metadata>
Created by potrace 1.11, written by Peter Selinger 2001-2013
</metadata>
<g transform="translate(0.000000,344.000000) scale(0.100000,-0.100000)"
fill="#000000" stroke="none">
<path d="M1634 2891 c-5 -6 -28 -11 -61 -14 -13 -1 -23 -5 -23 -8 0 -4 -12
-10 -27 -13 -35 -8 -163 -46 -183 -53 -14 -6 -214 -68 -250 -78 -8 -2 -30 -9
-49 -14 -19 -6 -37 -9 -39 -6 -2 2 -14 -5 -25 -16 -12 -11 -25 -15 -30 -10 -5
5 -20 3 -35 -5 -15 -8 -35 -14 -44 -14 -10 0 -18 -5 -18 -12 0 -6 -3 -9 -6 -5
-3 3 -27 -1 -52 -9 -26 -8 -54 -16 -62 -18 -8 -2 -149 -45 -312 -95 -164 -50
-300 -91 -303 -91 -3 0 -5 -4 -5 -9 0 -9 64 -42 77 -40 18 4 73 -14 73 -24 0
-6 3 -8 6 -4 4 3 22 0 41 -8 19 -8 39 -12 44 -9 5 3 9 0 9 -7 0 -7 3 -9 7 -6
3 4 11 3 17 -2 6 -4 32 -14 58 -21 27 -7 48 -17 48 -22 0 -5 4 -7 9 -4 7 5
194 -50 241 -70 8 -4 20 -8 25 -9 20 -5 160 -47 175 -52 8 -4 17 -7 20 -7 3
-1 11 -5 18 -9 6 -5 12 -5 12 -1 0 3 7 1 15 -6 8 -7 15 -10 15 -7 0 4 19 -1
43 -9 23 -9 49 -17 57 -19 8 -2 53 -15 98 -30 87 -27 112 -27 112 1 0 9 11 38
25 66 14 27 25 56 25 64 0 8 5 14 10 14 6 0 9 3 8 8 -2 4 6 27 16 52 11 25 20
48 20 52 1 3 4 10 9 14 4 4 7 15 7 24 0 9 9 25 19 34 11 10 17 25 14 37 -3 10
0 19 6 19 6 0 11 7 11 15 0 8 16 47 35 88 19 41 35 81 35 89 0 9 7 21 15 28 8
7 15 20 15 29 0 9 7 27 16 39 8 12 12 22 8 22 -3 0 1 11 10 25 9 14 14 25 10
25 -4 0 0 7 7 16 7 9 14 21 16 28 1 6 5 21 9 33 5 18 2 22 -15 20 -12 -1 -24
-3 -27 -6z"/>
<path d="M1712 2858 c-26 -59 -44 -103 -43 -106 1 -1 -6 -17 -16 -35 -9 -17
-17 -34 -18 -37 0 -3 -8 -22 -18 -43 -10 -20 -15 -42 -12 -47 3 -6 2 -10 -3
-10 -9 0 -55 -96 -79 -167 -8 -24 -20 -43 -26 -43 -6 0 -7 -3 -4 -6 3 -4 1
-16 -5 -28 -7 -11 -13 -30 -15 -41 -2 -11 -8 -21 -13 -23 -6 -2 -10 -9 -10
-16 0 -7 -20 -60 -45 -117 -25 -57 -43 -109 -41 -116 6 -16 76 -45 92 -39 7 3
14 2 16 -2 2 -4 65 -26 141 -49 l138 -42 61 19 c34 10 65 17 69 14 4 -2 9 -1
11 4 2 7 127 49 166 56 7 1 17 7 23 13 6 6 18 9 26 6 11 -4 13 1 7 23 -4 16
-10 31 -14 34 -3 3 -14 28 -24 55 -10 28 -25 60 -32 72 -8 12 -16 30 -17 40
-2 10 -19 50 -36 88 -18 39 -34 75 -35 80 -1 6 -6 17 -11 25 -5 8 -10 18 -11
23 -1 4 -3 9 -4 12 -1 3 -3 8 -4 13 -1 4 -10 22 -19 40 -10 17 -15 32 -11 32
4 0 2 6 -4 13 -12 15 -122 272 -122 286 0 6 -4 11 -10 11 -5 0 -10 9 -10 19 0
37 -18 31 -38 -11z"/>
<path d="M1790 2886 c0 -2 7 -21 16 -42 21 -49 35 -88 36 -94 0 -3 7 -14 14
-25 8 -11 14 -27 14 -37 0 -10 5 -18 10 -18 6 0 10 -9 10 -19 0 -11 5 -23 10
-26 6 -4 8 -10 5 -14 -2 -5 2 -17 10 -27 8 -10 15 -27 15 -36 0 -10 5 -18 11
-18 5 0 7 -4 4 -10 -3 -5 -1 -10 6 -10 7 0 10 -3 6 -6 -3 -4 3 -24 13 -45 11
-21 20 -45 20 -52 0 -8 7 -20 15 -27 8 -6 14 -15 13 -18 -3 -16 15 -62 25 -62
6 0 7 -3 4 -6 -3 -4 -1 -16 5 -28 7 -11 11 -24 10 -28 -1 -5 3 -8 10 -8 6 0 9
-3 6 -6 -4 -3 4 -29 17 -57 13 -28 21 -55 18 -60 -3 -6 -1 -7 5 -3 7 4 13 1
13 -8 1 -9 3 -19 4 -23 2 -5 6 -18 10 -30 8 -26 12 -26 139 13 43 14 86 26 95
28 9 2 29 8 44 14 16 7 36 12 46 12 10 0 21 3 25 8 4 4 11 7 14 8 4 0 58 17
121 37 63 20 119 33 124 30 6 -3 7 -2 4 4 -4 6 18 16 51 23 31 8 73 20 91 28
19 8 43 16 53 18 10 2 27 6 39 9 12 2 27 9 35 15 7 7 18 9 24 5 5 -3 10 -2 10
2 0 5 8 10 18 11 28 3 46 7 57 13 6 3 55 21 110 39 117 38 144 55 99 65 -16 4
-38 10 -49 15 -20 9 -159 51 -182 56 -26 5 -118 37 -123 43 -3 3 -16 7 -30 8
-46 4 -60 7 -60 13 0 3 -27 12 -60 19 -33 8 -63 18 -66 22 -3 5 -16 9 -30 9
-13 0 -24 5 -24 11 0 5 -4 7 -10 4 -5 -3 -43 5 -82 18 -40 13 -109 34 -153 47
-44 12 -89 26 -100 32 -12 5 -27 10 -35 12 -8 2 -23 6 -32 10 -9 4 -22 5 -28
1 -5 -3 -10 -1 -10 6 0 7 -2 10 -6 7 -3 -3 -27 3 -55 13 -27 10 -49 16 -49 13
0 -4 -7 -1 -15 6 -8 7 -15 9 -15 5 0 -4 -6 -2 -14 4 -8 6 -18 11 -22 10 -5 -1
-16 1 -24 4 -8 3 -34 11 -57 17 -24 6 -43 14 -43 18 0 4 -8 8 -17 9 -44 3 -87
13 -96 22 -10 10 -67 16 -67 7z"/>
<path d="M100 2362 c0 -5 13 -21 30 -37 16 -15 27 -32 24 -37 -3 -4 -1 -8 4
-8 5 0 58 -57 118 -127 60 -71 119 -138 131 -151 13 -13 23 -27 23 -32 0 -6 5
-10 10 -10 6 0 10 -7 10 -15 0 -8 7 -15 15 -15 8 0 15 -3 15 -7 0 -7 25 -38
124 -153 11 -14 46 -55 76 -90 30 -36 58 -66 63 -68 4 -2 7 -10 7 -18 0 -9 4
-12 10 -9 6 3 10 -1 10 -10 0 -9 5 -13 10 -10 5 3 10 2 10 -4 0 -7 123 -155
271 -326 15 -16 149 -174 299 -350 340 -400 310 -368 306 -322 -2 21 -6 40
-10 44 -3 3 -6 16 -6 28 0 12 -3 25 -7 29 -4 3 -8 15 -10 24 -1 10 -10 45 -19
78 -9 32 -20 77 -24 99 -5 22 -13 52 -19 67 -6 16 -7 28 -4 28 4 0 2 5 -5 12
-7 7 -12 22 -12 34 0 13 -5 26 -10 29 -8 5 -7 11 1 21 8 10 8 14 0 14 -6 0
-11 8 -11 18 0 9 -7 37 -16 61 -8 24 -13 50 -10 58 3 7 2 13 -3 13 -7 0 -15
27 -36 115 -3 11 -8 31 -11 45 -3 14 -7 33 -7 43 -1 9 -4 17 -7 17 -4 0 -12
29 -20 65 -7 35 -17 62 -22 59 -4 -3 -5 2 -2 10 3 8 -2 38 -11 65 -9 28 -14
55 -10 61 3 5 2 10 -4 10 -8 0 -29 75 -37 135 -1 11 -3 21 -4 23 -2 1 -3 5 -5
10 -1 4 -4 14 -8 22 -3 8 -9 28 -14 44 -5 16 -18 34 -29 40 -10 6 -21 13 -24
16 -3 3 -16 6 -30 8 -14 1 -26 6 -28 11 -2 5 -11 7 -21 4 -10 -2 -24 1 -32 9
-8 7 -18 13 -24 13 -24 1 -115 30 -115 37 0 4 -3 7 -7 6 -14 -4 -103 24 -103
33 0 5 -7 6 -15 3 -8 -4 -15 -1 -15 6 0 10 -3 10 -14 1 -11 -9 -18 -8 -30 4
-9 9 -16 14 -16 11 0 -5 -139 39 -185 59 -16 7 -47 16 -67 20 -23 4 -35 11
-31 18 3 5 1 7 -4 4 -10 -6 -78 12 -128 33 -20 9 -96 34 -105 35 -3 0 -9 3
-15 6 -5 3 -32 12 -60 19 -27 7 -54 17 -59 21 -13 11 -46 12 -46 1z"/>
<path d="M3255 2327 c-55 -18 -104 -35 -110 -38 -5 -4 -26 -10 -45 -14 -19 -4
-39 -10 -45 -14 -5 -4 -59 -23 -120 -41 -60 -19 -111 -38 -113 -41 -2 -4 -12
-5 -22 -2 -12 3 -20 0 -20 -8 0 -7 -3 -10 -6 -7 -5 5 -88 -18 -144 -39 -8 -4
-17 -7 -20 -8 -67 -19 -418 -139 -427 -146 -9 -8 -25 -67 -25 -96 0 -5 -3 -12
-8 -18 -4 -5 -11 -26 -15 -45 -4 -19 -23 -93 -42 -165 -19 -71 -37 -137 -39
-145 -2 -8 -8 -33 -13 -54 -5 -22 -8 -43 -5 -47 2 -4 0 -9 -4 -11 -5 -1 -16
-34 -25 -73 -31 -132 -48 -200 -54 -215 -10 -24 -24 -78 -64 -247 -6 -24 -15
-43 -20 -43 -6 0 -7 -4 -4 -10 8 -13 -17 -120 -28 -120 -4 0 -5 -4 -2 -10 3
-5 1 -19 -5 -30 -8 -14 -8 -20 0 -20 6 0 4 -7 -4 -16 -17 -17 -21 -50 -7 -58
5 -3 16 5 24 18 9 12 30 37 47 54 17 18 28 32 23 32 -4 0 6 9 22 20 17 11 26
20 20 20 -5 0 7 17 26 37 20 21 47 52 61 70 14 18 29 29 32 26 3 -4 6 -1 6 6
0 7 117 149 260 316 143 167 260 309 260 316 0 7 3 10 6 7 3 -4 42 37 87 90
45 54 87 103 94 110 7 7 13 18 13 23 0 5 6 9 14 9 8 0 18 9 21 20 3 11 11 20
16 20 6 0 7 5 4 10 -3 6 2 10 11 10 10 0 14 3 11 7 -4 3 -1 11 6 17 8 6 40 42
73 81 32 38 65 76 72 83 6 7 12 18 12 23 0 6 5 7 10 4 6 -3 10 -2 10 4 0 5 34
49 75 97 41 48 75 91 75 96 0 4 7 8 15 8 8 0 15 6 15 14 0 8 3 16 8 18 10 4
122 135 122 142 0 9 -7 7 -115 -27z"/>
<path d="M1344 1943 c3 -16 16 -69 29 -120 14 -51 22 -94 19 -98 -3 -3 0 -5 7
-5 7 0 9 -4 6 -10 -3 -5 -1 -10 6 -10 9 0 9 -3 0 -14 -8 -9 -8 -15 -2 -18 10
-3 19 -35 38 -130 3 -16 8 -28 12 -28 3 0 7 -10 8 -22 3 -41 11 -75 22 -95 5
-11 7 -23 4 -27 -3 -3 -1 -6 5 -6 6 0 9 -6 6 -13 -3 -8 2 -35 11 -61 9 -25 13
-51 10 -56 -3 -6 -1 -10 4 -10 6 0 11 -6 11 -12 0 -16 89 -366 100 -393 5 -11
14 -48 21 -82 7 -34 15 -60 18 -58 3 1 7 -13 8 -33 1 -20 7 -38 13 -40 5 -2 8
-8 5 -12 -7 -12 26 -130 37 -130 7 0 12 19 11 48 -1 6 3 12 9 12 5 0 6 5 3 10
-3 6 -1 10 5 10 6 0 9 4 6 8 -4 7 8 60 74 302 17 63 33 124 35 135 3 11 12 47
21 80 8 33 22 90 31 128 9 37 20 67 25 67 5 0 7 4 4 8 -3 4 0 28 6 53 5 24 11
49 12 55 1 7 7 18 14 26 6 8 9 17 6 20 -3 3 2 32 11 64 9 33 18 68 20 79 15
70 40 151 48 156 5 4 5 9 -2 13 -6 4 -7 13 -2 24 15 29 31 87 31 111 0 12 3
20 8 18 4 -3 8 12 10 33 2 26 -2 39 -13 44 -8 3 -15 2 -15 -2 0 -8 -86 -34
-120 -37 -8 -1 -24 -6 -35 -12 -18 -10 -102 -35 -115 -35 -3 0 -13 -4 -23 -10
-35 -19 -66 -18 -119 2 -29 11 -63 20 -75 20 -13 0 -23 4 -23 8 0 4 -12 9 -27
10 -15 1 -29 5 -32 10 -3 4 -19 9 -36 11 -16 1 -36 8 -42 13 -7 6 -13 7 -13 3
0 -4 -7 -2 -15 5 -8 7 -15 9 -15 4 0 -4 -5 -3 -12 4 -7 7 -23 12 -36 12 -20 0
-22 -4 -18 -27z"/>
</g>
</svg>
